<svg width="647" height="141" viewBox="0 0 647 141" fill="none" xmlns="http://www.w3.org/2000/svg">
<path fill-rule="evenodd" clip-rule="evenodd" d="M0 9.495V18.989L35.835 71.245L71.67 123.5L35.835 123.762L0 124.025V128.012V132H48.5H97L96.936 129.75C96.9 128.487 78.782 101.409 55.619 68L14.365 8.5L39.933 8.232C70.853 7.908 74.752 8.496 80.635 14.375C84.613 18.35 86.982 23.705 86.994 28.75C86.998 30.363 87.591 31 89.088 31C91.1 31 91.164 30.596 90.838 20.07C90.458 7.797 89.237 4.968 82.929 1.752C79.835 0.174001 75.618 0.00300081 39.75 0.00200081L0 0V9.495ZM113 1.971C113 3.627 113.65 4 116.532 4C122.62 4 126.478 6.282 128.595 11.134C130.384 15.235 130.518 19.043 130.802 73.795L131.104 132.09L169.037 131.795L206.969 131.5L210.38 128C212.763 125.555 214.906 121.426 217.487 114.303C219.52 108.694 220.891 103.632 220.533 103.053C219.271 101.011 217.388 102.039 216.158 105.44C214.213 110.818 206.733 118.427 200.779 121.085C195.823 123.296 194.076 123.464 172.25 123.814L149 124.187V96.094V68H176H203V64V60H176H149V33.919V7.839L172.25 8.173C193.946 8.485 195.776 8.654 199.624 10.71C205.63 13.917 208.747 18.152 210.169 25.04C211.123 29.657 211.806 31 213.2 31C214.794 31 215 30.013 215 22.366C215 11.217 213.574 6.54 209.143 3.159L205.658 0.5L159.329 0.221001C113.356 -0.0549993 113 -0.0419993 113 1.971ZM245 66V132H248.992H252.983L253.242 76.569L253.5 21.138L278.978 76.569C300.686 123.799 304.763 132 306.529 132C308.3 132 311.876 124.726 330.987 82.25C343.298 54.887 354.524 30.025 355.935 27L358.5 21.5L359.034 69C359.634 122.48 359.697 122.966 367.028 131.294C371.848 136.77 379.175 139.88 389.249 140.724C395.556 141.253 396 141.156 396 139.256C396 137.735 395.143 137.062 392.601 136.585C385.638 135.279 381.257 129.433 378.511 117.781C377.296 112.632 377.027 101.454 377.015 55.75L377 0L367.75 0.0100002L358.5 0.0200005L335.077 51.963L311.654 103.906L287.673 51.953L263.691 0H254.346H245V66ZM458.704 0.694C458.169 1.585 405.295 126.123 403.889 129.805C403.04 132.025 403.174 132.098 407.57 131.805L412.132 131.5L419.898 113L427.664 94.5L455.739 94.235L483.813 93.969L486.555 101.235C492.663 117.423 498.285 125.049 507.358 129.456C516.263 133.781 531 134.166 531 130.073C531 128.734 529.791 127.933 526.526 127.111C520.649 125.631 516.177 121.554 512.54 114.357C510.912 111.136 499.582 84.2 487.364 54.5C465.383 1.07 465.117 0.497 462.168 0.194C460.529 0.0250002 458.97 0.25 458.704 0.694ZM529 1.91C529 3.636 529.616 4 532.532 4C538.62 4 542.478 6.282 544.595 11.134C546.384 15.235 546.518 19.042 546.802 73.75L547.104 132H556.052H565V101.5V71H571.787H578.573L588.97 88.75C601.823 110.694 607.78 119.495 613.797 125.427C619.554 131.103 626.861 134.046 634.788 133.882C643.485 133.702 646.451 132.827 646.807 130.336C647.054 128.614 646.454 128.042 643.807 127.47C633.397 125.222 628.739 120.06 612.263 92.513C605.351 80.956 599.556 71.233 599.386 70.907C599.216 70.581 602.824 68.891 607.404 67.151C617.596 63.28 623.837 58.077 627.658 50.266C631.391 42.637 631.573 30.275 628.071 22.286C625.544 16.523 618.519 9.326 612.349 6.178C602.676 1.243 598.49 0.743999 562.75 0.268999C529.037 -0.180001 529 -0.178 529 1.91ZM589.145 9.005C597.661 11.691 603.826 16.42 607.417 23.021C609.867 27.525 610.333 29.527 610.333 35.532C610.333 47.595 605.043 55.339 593.046 60.841C588.441 62.952 585.59 63.457 576.25 63.818L565 64.252V36.645V9.038L567.25 8.558C568.487 8.294 570.4 7.888 571.5 7.655C576.372 6.625 583.273 7.153 589.145 9.005ZM468.46 58.6L479.621 85.5L467.869 85.78C461.405 85.934 450.499 85.934 443.634 85.78L431.152 85.5L443.297 57.127C452.176 36.382 455.692 29.149 456.371 30.226C456.882 31.037 462.322 43.805 468.46 58.6Z" fill="white"/>
</svg>
